<svg width="120" height="120" viewBox="0 0 120 120" fill="none" xmlns="http://www.w3.org/2000/svg">
<path opacity="0.32" d="M0 60C0 93.1371 26.8629 120 60 120C93.1371 120 120 93.1371 120 60C120 26.8629 93.1371 0 60 0C26.8629 0 0 26.8629 0 60Z" fill="#FA756D" fill-opacity="0.8"/>
<path fill-rule="evenodd" clip-rule="evenodd" d="M45.5345 45.5345C37.8498 53.2192 36.1698 71.4311 36.1698 71.4311C35.1376 81.246 38.754 84.8624 48.5689 83.8302C48.5689 83.8302 66.7809 82.1502 74.4655 74.4655C82.1502 66.7808 83.8302 48.5688 83.8302 48.5688C84.8623 38.7541 81.246 35.1377 71.4312 36.1698C71.4312 36.1698 53.2192 37.8498 45.5345 45.5345ZM54 60C54 63.3137 56.6863 66 60 66C63.3137 66 66 63.3137 66 60V59.994C66 56.6803 63.3137 53.994 60 53.994C56.6863 53.994 54 56.6803 54 59.994V60Z" fill="#FA756D"/>
</svg>
